<?xml version="1.0" encoding="utf-8"?>
<!-- Generator: Adobe Illustrator 22.1.0, SVG Export Plug-In . SVG Version: 6.00 Build 0)  -->
<svg version="1.1" id="Capa_2_1_" xmlns="http://www.w3.org/2000/svg" xmlns:xlink="http://www.w3.org/1999/xlink" x="0px" y="0px"
	 viewBox="0 0 318.7 158" style="enable-background:new 0 0 318.7 158;" xml:space="preserve">
<style type="text/css">
	.st0{fill:#800000;}
	.st1{fill:#D2B48C;}
</style>
<g>
	<g>
		<g>
			<path class="st0" d="M38.2,28.6c6.1,0.5,9.5,2,12.5,4.5c2.9,2.6,4.4,5.8,4.4,9.6c0,3.4-1,6.2-3,8.7c-2,2.4-4.5,4-7.6,4.8
				c-3.1,0.7-6.3,1.1-11.5,1.1H13.1v-1.8h2c2.3,0,3.9-0.3,4.7-0.9c0.9-0.6,1.4-1.5,1.7-2.7c0.2-1.2,0.4-4.1,0.4-8.5V17.5
				c0-4.3-0.1-6.5-0.4-7.8c-0.2-1.3-0.8-2.1-1.6-2.6c-0.8-0.5-5.5-0.7-8.2-0.7h-1V4l11.7-0.2l9-0.3c14.6,0,20.8,4.2,20.8,12.6
				c0,3.5-1.3,6.2-3.8,8.3C46,26.5,43.2,27.9,38.2,28.6z M32.7,28.8c4.3-0.4,7.1-1.8,9.1-3.6c2.1-1.8,3.1-4.7,3.1-8.6
				c0-2.8-0.4-4.9-1.2-6.4s-2-2.7-3.7-3.5c-1.6-0.8-4.4-1.2-8.3-1.2c-1,0-2.1,0-3.1,0.1V28v1.9v11.9c0,5.1,0.1,8.3,0.3,9.6
				c0.2,1.4,0.7,2.4,1.5,3.1s2.4,1.1,4.7,1.1c4.2,0,7.3-1.1,9.4-3.2s3.1-5.4,3.1-9.7c0-4.4-1.2-7.6-3.6-9.7
				C41.7,30.8,36.9,29.2,32.7,28.8z"/>
		</g>
		<path class="st0" d="M67.9,3.6v45.1c0,2.6,0,4.3,0.1,5s0.4,1.2,0.9,1.6s1.4,0.5,2.7,0.5h0.7v1.4H59.1v-1.4h0.8
			c1.2,0,2.1-0.2,2.6-0.5s0.8-0.8,0.9-1.4s0.2-2.3,0.2-5.2V12.2c0-2.6-0.2-4.2-0.7-4.9s-1.6-1-3.4-1V4.9c1.2,0,2.7-0.1,4.3-0.4
			c1.7-0.3,2.8-0.6,3.4-0.8L67.9,3.6L67.9,3.6z"/>
		<path class="st0" d="M89.5,42.5c-4.9,1.9-8.8,5.7-8.8,8.9c0,1.3,0.3,2.3,1,3.1c0.7,0.8,1.5,1.2,2.6,1.2c0.9,0,2-0.3,3.3-0.9
			c1.2-0.6,2.6-1.6,4.2-2.8v-9.9v-1.4v-1.2c0-1.7-0.1-2.9-0.3-3.7c-0.2-0.8-0.8-1.4-1.7-2.1c-0.9-0.6-2.1-0.9-3.6-0.9
			c-3,0-4.7,1-5,3c-0.3,2.1-1.2,3.1-2.5,3.1c-1.2,0-1.8-0.6-1.8-1.7s0.8-2.4,2.4-3.7c1.6-1.3,4.2-2,7.6-2c2.6,0,4.5,0.4,5.9,1.2
			c1.4,0.8,2.3,1.7,2.8,2.7s0.7,2.6,0.7,4.7v10c0,2.3,0.1,3.8,0.4,4.5c0.2,0.7,0.8,1,1.6,1c1.3,0,2.2-1,2.5-3h1.1
			c-0.2,3.4-1.9,5.2-5.1,5.2c-1.4,0-2.4-0.4-3.2-1.1s-1.3-1.8-1.6-3.2c-2,1.4-3.8,2.5-5.5,3.2s-3.1,1.1-4.4,1.1
			c-1.7,0-3.1-0.5-4.3-1.4c-1.2-1-1.8-2.2-1.8-3.8c0-2.1,1.5-4.6,3.5-6.1C81.2,44.8,85.4,42.8,89.5,42.5z"/>
		<path class="st0" d="M257.6,42.5c-4.9,1.9-8.8,5.7-8.8,8.9c0,1.3,0.3,2.3,1,3.1c0.7,0.8,1.5,1.2,2.6,1.2c0.9,0,2-0.3,3.3-0.9
			c1.2-0.6,2.6-1.6,4.2-2.8v-9.9v-1.4v-1.2c0-1.7-0.1-2.9-0.3-3.7c-0.2-0.8-0.8-1.4-1.7-2.1c-0.9-0.6-2.1-0.9-3.6-0.9
			c-3,0-4.7,1-5,3c-0.3,2.1-1.2,3.1-2.5,3.1c-1.2,0-1.8-0.6-1.8-1.7s0.8-2.4,2.4-3.7c1.6-1.3,4.2-2,7.6-2c2.6,0,4.5,0.4,5.9,1.2
			c1.4,0.8,2.3,1.7,2.8,2.7s0.7,2.6,0.7,4.7v10c0,2.3,0.1,3.8,0.4,4.5c0.2,0.7,0.8,1,1.6,1c1.3,0,2.2-1,2.5-3h1.1
			c-0.2,3.4-1.9,5.2-5.1,5.2c-1.4,0-2.4-0.4-3.2-1.1c-0.8-0.7-1.3-1.8-1.6-3.2c-2,1.4-3.8,2.5-5.5,3.2c-1.7,0.7-3.1,1.1-4.4,1.1
			c-1.7,0-3.1-0.5-4.3-1.4c-1.2-1-1.8-2.2-1.8-3.8c0-2.1,1.5-4.6,3.5-6.1C249.3,44.8,253.6,42.8,257.6,42.5z"/>
		<path class="st0" d="M110.7,31.4h0.8c0.5,1.2,0.7,2.9,0.8,5.1c1.4-1.7,3-3,4.6-3.8c1.6-0.8,3.2-1.3,5-1.3c2,0,3.6,0.4,4.8,1.2
			c1.3,0.8,2.1,1.8,2.4,3c0.4,1.2,0.5,2.9,0.5,5.2v7.7c0,2.9,0.1,4.6,0.2,5.2c0.1,0.6,0.4,1.1,1,1.4c0.5,0.3,1.5,0.5,2.9,0.5V57
			h-12.6v-1.4h0.6c1.4,0,2.4-0.2,2.8-0.6c0.4-0.4,0.7-0.9,0.8-1.5s0.1-2.2,0.1-5v-8c0-1.9-0.1-3.3-0.3-4.2c-0.2-0.8-0.7-1.6-1.5-2.2
			s-1.9-1-3.2-1c-1.5,0-4.8,0.9-8,4.1v11.3c0,2.9,0.1,4.6,0.2,5.2c0.1,0.6,0.4,1.1,1,1.4c0.5,0.3,1.5,0.5,3,0.5V57h-12.5v-1.4
			c1.4,0,2.4-0.1,2.9-0.4s0.9-0.7,1-1.3c0.1-0.6,0.2-2.4,0.2-5.4v-7.4c0-2.9-0.1-4.6-0.2-5.2c-0.1-0.6-0.4-1.1-1-1.4
			c-0.5-0.3-2.7-0.5-4.2-0.5v-2C105,32,108.4,32.1,110.7,31.4z"/>
		<path class="st0" d="M158.7,51.1h1.3c-1.4,4.7-4.8,7-10.3,7c-3.5,0-6.5-1.2-8.9-3.6s-3.6-5.6-3.6-9.5c0-4,1.3-7.3,3.9-9.8
			c2.6-2.5,5.7-3.8,9.2-3.8c2.1,0,4.1,0.5,5.9,1.4c1.8,0.9,2.7,2.1,2.7,3.4c0,0.5-0.2,1-0.5,1.4s-0.8,0.7-1.4,0.7
			c-1.3,0-2.1-0.8-2.4-2.3c-0.2-1.2-0.6-2-1.1-2.4c-0.5-0.5-1.5-0.7-3-0.7c-2.7,0-4.7,0.9-6.1,2.8c-1.4,1.9-2,4.7-2,8.4
			c0,3.9,0.7,6.9,2.2,9.1s3.7,3.3,6.6,3.3C155,56.5,157.6,54.7,158.7,51.1z"/>
		<path class="st0" d="M163.7,44.7c0-3.8,1.3-6.9,3.8-9.5c2.5-2.5,5.7-3.8,9.4-3.8s6.8,1.3,9.4,3.8c2.5,2.6,3.8,5.7,3.8,9.5
			c0,4.2-1.3,7.4-3.9,9.8c-2.6,2.4-5.7,3.6-9.3,3.6s-6.7-1.2-9.3-3.6C165,52.1,163.7,48.8,163.7,44.7z M168.7,44.9
			c0,4.4,0.7,7.5,2.1,9.2c1.4,1.8,3.4,2.6,6,2.6s4.6-0.9,6-2.6c1.4-1.8,2.1-4.8,2.1-9.2c0-4.3-0.7-7.4-2.1-9.3
			c-1.4-1.8-3.4-2.8-6.1-2.8c-2.6,0-4.6,0.9-6,2.8C169.4,37.4,168.7,40.5,168.7,44.9z"/>
		<path class="st0" d="M201,31.4h0.3c0.6,1.3,0.9,3.1,0.9,5.2c1.3-1.7,2.8-3,4.4-3.9c1.6-0.9,3.2-1.3,5-1.3c2,0,3.7,0.5,4.9,1.4
			c1.3,0.9,2.2,2.3,2.7,4.2c1.5-1.8,3.1-3.2,4.7-4.2c1.6-0.9,3.2-1.4,4.9-1.4c1.9,0,3.5,0.4,4.9,1.3c1.3,0.9,2.1,1.9,2.4,3
			s0.4,2.9,0.4,5.5v7.4c0,2.9,0.1,4.6,0.2,5.2s0.4,1.1,1,1.4c0.5,0.3,1.5,0.5,3,0.5v1.4h-12.3v-1.4c1.3,0,2.2-0.1,2.8-0.4
			c0.5-0.3,0.9-0.7,1-1.3c0.1-0.6,0.2-2.4,0.2-5.3v-8.2c0-1.7-0.1-2.9-0.3-3.8c-0.2-0.8-0.7-1.6-1.5-2.2s-1.9-0.9-3.1-0.9
			c-1.3,0-4.9,1.2-7.9,4.2v10.9c0,2.6,0,4.3,0.1,5s0.4,1.2,0.8,1.6c0.5,0.4,1.4,0.6,2.6,0.6v1.4h-11.9v-1.4c1.3,0,2.3-0.1,2.8-0.4
			s0.9-0.7,1-1.3c0.1-0.6,0.2-2.4,0.2-5.4V42c0-2.2-0.1-3.7-0.3-4.7c-0.2-1-0.7-1.8-1.6-2.5s-1.9-1-3.2-1c-1.2,0-4.2,0.7-7.8,3.6
			v11.5c0,2.7,0,4.4,0.1,5.1s0.4,1.2,0.9,1.5s1.5,0.5,2.8,0.5v1.4H194V56c1.3,0,2.3-0.1,2.8-0.4s0.9-0.7,1-1.3
			c0.1-0.6,0.2-2.4,0.2-5.3v-7.4c0-2.8,0-4.5-0.1-5.2c-0.1-0.6-0.4-1.1-0.9-1.4s-2.7-0.5-4.1-0.5v-2C195.6,31.9,199.1,32.1,201,31.4
			z"/>
		<path class="st0" d="M292.2,33.7c-1.4-0.4-3.8-0.9-6.1-0.6c-2.3,0.3-4.3,1.1-5.8,2.8c-1.5,1.7-2.3,4.6-2.3,8.6s0.8,7,2.3,8.9
			c1.6,1.9,3.5,2.9,5.8,2.9c1.5,0,2.9-0.4,4.3-1.1c1.3-0.7,2.5-1.8,3.6-3.3V36.8v-1.7V13.3c0-2.6,0-4.3-0.1-5s-0.4-1.2-0.9-1.6
			c-0.5-0.4-1.4-0.5-2.7-0.5h-0.6V4.8c2.4-0.1,5.1-0.5,8-1.3h0.6v44.7c0,2.9,0,4.6,0.2,5.2c0.1,0.6,0.4,1.1,0.9,1.4s2.1,0.5,3.6,0.5
			v2c-2.9,0.1-6.1,0.3-8.4,0.8c-0.2-0.9-0.4-2.4-0.4-4.5c-1.5,1.5-3,2.6-4.6,3.3c-1.6,0.7-3.2,1.1-4.9,1.1c-3.2,0-6-1.3-8.3-3.9
			s-3.5-5.7-3.5-9.3c0-4,1.2-7.3,3.6-9.8s5.2-3.7,8.5-3.7C286.7,31.4,290.3,32,292.2,33.7z"/>
	</g>
	<path class="st1" d="M5.5,86.6c12.5-5,25.8-8.2,39.1-10.6c13.4-2.2,27-3.5,40.6-3.1l5.1,0.2c0.9,0,1.7,0,2.6,0.1l2.6,0.2
		c0.9,0.1,1.7,0.1,2.6,0.2l2.6,0.3c0.9,0.1,1.7,0.2,2.6,0.3l2.5,0.4c6.8,1.1,13.5,2.7,20,4.6c6.6,1.9,13,4.2,19.3,6.6
		s12.6,5.1,18.8,7.7c6.2,2.7,12.3,5.4,18.5,8s12.3,5.2,18.6,7.5c12.4,4.6,25.2,8.2,38.3,9.2c3.3,0.3,6.6,0.3,9.9,0.3
		c3.3-0.1,6.6-0.3,9.9-0.6c6.6-0.6,13.1-1.9,19.5-3.7s12.6-4.2,18.6-7.2c3-1.5,5.9-3.2,8.7-5c2.8-1.8,5.6-3.8,8.1-6
		c-4.6,4.9-10.1,9-15.9,12.6c-5.8,3.5-12,6.4-18.5,8.8c-12.9,4.5-26.7,6.6-40.5,6.2l-2.6-0.1c-0.9,0-1.7-0.1-2.6-0.2l-2.6-0.2
		l-2.6-0.3c-1.7-0.2-3.4-0.5-5.1-0.8s-3.4-0.7-5.1-1c-6.7-1.5-13.3-3.5-19.7-5.7c-6.4-2.3-12.7-4.8-19-7.4c-6.2-2.6-12.4-5.3-18.6-8
		c-6.2-2.7-12.3-5.3-18.5-7.7c-6.2-2.5-12.5-4.7-18.8-6.7c-6.3-2-12.7-3.6-19.2-4.9l-2.4-0.5c-0.8-0.2-1.6-0.3-2.4-0.4l-2.4-0.4
		c-0.8-0.1-1.6-0.2-2.4-0.3l-2.5-0.3c-0.8-0.1-1.7-0.1-2.5-0.2l-5-0.4c-1.7-0.2-3.3-0.2-5-0.2l-5-0.2h-5c-1.7,0-3.3,0-5,0.1l-5,0.2
		c-0.8,0-1.7,0.1-2.5,0.1l-2.5,0.2c-1.7,0.1-3.3,0.2-5,0.4l-5,0.5C31.8,80.7,18.5,83.1,5.5,86.6z"/>
	<path class="st0" d="M59.1,83.5c4.6-0.9,9.3-1.3,13.9-1.6c4.7-0.2,9.4-0.1,14.1,0.1c9.4,0.6,18.8,2.3,27.9,5.1
		c4.5,1.4,9,3.1,13.3,5.2l3.2,1.6c1.1,0.5,2.1,1.1,3.2,1.7c2.1,1.2,4.2,2.4,6.1,3.7c7.9,5.1,15.5,10.5,23.1,15.9
		c3.8,2.7,7.5,5.4,11.3,8.1c3.8,2.7,7.6,5.3,11.4,7.9c7.7,5.1,15.5,9.9,23.7,13.8c4.1,1.9,8.3,3.5,12.6,4.7c0.5,0.2,1.1,0.3,1.6,0.4
		c0.5,0.1,1.1,0.3,1.6,0.4c1.1,0.2,2.2,0.4,3.4,0.6c2.2,0.4,4.5,0.6,6.8,0.8c4.5,0.4,9.1,0.3,13.6-0.3c2.3-0.3,4.5-0.8,6.7-1.5
		c2.2-0.7,4.4-1.5,6.3-2.8c-0.8,0.8-1.8,1.5-2.8,2.1s-2,1.2-3.1,1.7c-2.2,1-4.4,1.8-6.7,2.4c-4.6,1.2-9.4,1.7-14.1,1.7
		c-2.4,0-4.8-0.1-7.1-0.3c-1.2-0.1-2.4-0.2-3.5-0.4c-0.6-0.1-1.2-0.2-1.8-0.2c-0.6-0.1-1.2-0.2-1.8-0.3c-1.2-0.2-2.4-0.5-3.5-0.8
		c-1.2-0.3-2.3-0.6-3.5-1c-1.2-0.3-2.3-0.8-3.4-1.1c-1.1-0.4-2.2-0.8-3.3-1.3c-4.4-1.8-8.7-3.9-12.9-6.1c-4.2-2.2-8.2-4.7-12.2-7.2
		s-7.9-5.1-11.7-7.8c-3.8-2.7-7.7-5.4-11.5-8.1l-11.3-8.1c-3.8-2.7-7.6-5.3-11.4-7.9c-1-0.6-1.9-1.3-2.9-1.9c-1-0.6-1.9-1.2-2.9-1.8
		s-1.9-1.2-2.9-1.7l-3-1.6c-4-2.1-8.2-3.9-12.4-5.5c-4.3-1.6-8.6-2.9-13.1-4.1c-4.4-1.2-8.9-2.1-13.5-2.7c-4.5-0.7-9.1-1.2-13.8-1.5
		c-2.3-0.2-4.6-0.3-6.9-0.3C63.8,83.4,61.4,83.4,59.1,83.5z"/>
</g>
</svg>
